# Blender v2.79 (sub 0) OBJ File: ''
# www.blender.org
mtllib claw_2.mtl
o vanguard_claw_2.mesh
v -0.019916 -0.027789 -0.032801
v -0.019916 -0.022540 -0.035076
v -0.019739 -0.022540 -0.051407
v -0.007769 -0.022540 -0.036804
v -0.019739 -0.027789 -0.051407
v 0.009169 0.004998 0.001860
v -0.009339 0.006942 0.002765
v 0.009169 0.007261 0.002765
v -0.009339 0.016341 0.004735
v -0.009339 0.009206 0.001860
v -0.019916 -0.022284 -0.034144
v 0.019746 -0.022540 -0.035076
v -0.005479 -0.022540 -0.035798
v -0.006801 -0.022540 -0.036068
v 0.009169 0.004495 0.000245
v 0.009169 -0.007500 0.002765
v 0.009169 -0.005053 0.001133
v 0.019746 -0.022298 -0.034213
v -0.019916 -0.008680 -0.015994
v -0.019916 -0.000698 -0.015272
v -0.009339 -0.000698 -0.015272
v 0.019746 -0.000698 -0.015272
v 0.009169 -0.000698 -0.015272
v 0.009169 0.017754 0.002459
v 0.009169 0.009206 -0.000482
v 0.009169 0.006942 -0.001387
v -0.019916 -0.026479 0.002938
v -0.019916 -0.023847 0.004913
v -0.009339 -0.023847 0.004913
v -0.009339 0.017704 0.002310
v -0.009339 0.017524 0.003767
v -0.019916 -0.026622 0.001413
v 0.009169 0.016169 0.004797
v 0.009169 -0.023847 0.004913
v -0.019916 -0.008696 -0.014583
v 0.009169 0.017524 0.003767
v -0.009339 0.007261 -0.001387
v -0.009339 0.004998 -0.000482
v 0.019746 -0.026473 0.003048
v -0.009339 0.009709 0.000245
v 0.009169 0.009709 0.001133
v 0.009169 -0.009764 0.001860
v -0.009339 -0.010267 0.001133
v -0.009339 -0.007820 0.002765
v 0.019746 -0.026599 0.001449
v 0.019746 -0.008680 -0.014549
v -0.009339 -0.005053 0.000245
v 0.009169 -0.007820 -0.001387
v -0.009339 -0.007500 -0.001387
v -0.009339 -0.009764 -0.000482
v 0.019746 -0.008697 -0.015961
v 0.019746 -0.027789 -0.032801
v -0.009339 -0.005556 0.001860
v 0.005309 -0.027789 -0.035798
v -0.009445 -0.027789 -0.052915
v -0.017272 -0.027789 -0.052915
v -0.018594 -0.027789 -0.052646
v -0.005479 -0.027789 -0.035798
v -0.006801 -0.027789 -0.036068
v -0.007946 -0.027789 -0.040580
v -0.009339 0.004495 0.001133
v -0.008477 -0.027789 -0.051910
v 0.007599 -0.027789 -0.036804
v 0.018424 -0.027789 -0.052646
v 0.019392 -0.027789 -0.051910
v 0.019746 -0.027789 -0.050904
v 0.019746 -0.022540 -0.050904
v 0.006631 -0.027789 -0.036068
v 0.019746 -0.023847 0.004913
v 0.019392 -0.022540 -0.051910
v 0.010597 -0.022540 -0.052915
v 0.018424 -0.022540 -0.052915
v 0.009275 -0.022540 -0.052646
v 0.005309 -0.022540 -0.035798
v 0.006631 -0.022540 -0.036068
v 0.007599 -0.022540 -0.036804
v 0.008042 -0.022540 -0.044608
v -0.017272 -0.022540 -0.052915
v -0.009445 -0.022540 -0.052915
v -0.008123 -0.022540 -0.037810
v 0.009169 -0.010267 0.000245
v -0.018594 -0.022540 -0.052646
v 0.017102 -0.027789 -0.052915
v 0.010597 -0.027789 -0.052915
v 0.007953 -0.027789 -0.044357
v 0.009275 -0.027789 -0.052646
v -0.008477 -0.022540 -0.051910
v -0.008123 -0.022540 -0.050904
v 0.009169 -0.005556 -0.000482
v 0.008307 -0.027789 -0.051910
vn -0.9999 -0.0047 -0.0108
vn 0.0000 1.0000 0.0000
vn -1.0000 0.0000 -0.0095
vn -0.0064 0.3713 -0.9285
vn -1.0000 -0.0000 0.0000
vn 0.0000 0.9643 -0.2649
vn 1.0000 0.0000 0.0000
vn -0.0001 0.9629 -0.2700
vn 0.0000 0.6582 -0.7528
vn -0.0011 0.6593 -0.7519
vn 0.0000 0.6572 0.7537
vn -0.0037 0.9924 0.1226
vn 0.0030 0.6052 0.7961
vn 0.0064 0.3713 0.9285
vn -0.0021 -0.6002 0.7999
vn 0.0000 -0.5790 0.8153
vn 0.0176 -0.5546 0.8319
vn -0.0001 -0.9956 0.0934
vn -0.0176 -0.5546 -0.8319
vn 0.0176 0.5548 -0.8318
vn 0.0005 -0.9969 0.0786
vn 0.0009 -0.6658 -0.7461
vn 0.0011 -0.6660 -0.7460
vn 1.0000 0.0001 0.0000
vn 0.0004 -0.9999 -0.0113
vn -0.0176 0.5548 0.8318
vn 0.0064 0.3712 0.9285
vn -0.0004 -0.9999 0.0120
vn 0.0000 -0.6604 0.7509
vn -0.0009 -0.6615 0.7500
vn 0.0000 0.6333 0.7739
vn -0.0176 -0.5548 -0.8318
vn 0.0000 -1.0000 0.0000
vn -0.0143 0.9547 -0.2973
vn 0.0064 -0.3712 -0.9285
vn 0.9433 0.0000 -0.3319
vn 0.0000 0.9849 0.1732
vn 0.0143 -0.9547 -0.2973
vn -0.0064 0.3712 -0.9285
vn 0.0000 0.0000 -1.0000
vn -0.1994 0.0000 -0.9799
vn 0.0143 0.9547 0.2973
vn -0.0143 -0.9547 0.2973
vn 0.1991 -0.0502 -0.9787
vn 0.9994 0.0337 0.0000
vn 0.9972 -0.0583 -0.0467
vn 0.9237 0.2027 -0.3250
vn 0.0176 -0.5548 0.8318
vn 0.5298 0.4834 -0.6968
vn 0.2001 0.0000 -0.9798
vn 0.9693 0.0000 -0.2460
vn -0.2001 0.0000 -0.9798
vn -0.6052 0.0000 -0.7960
vn -0.9984 0.0000 -0.0567
vn -0.6053 0.0000 -0.7960
vn -0.9988 0.0147 -0.0468
vn -0.9759 0.1590 -0.1497
vn 0.7198 -0.0355 -0.6933
vn 0.6052 0.0000 -0.7960
vn -0.7344 0.0000 -0.6787
vn 0.7202 0.0000 -0.6937
vn 0.0000 0.6908 -0.7230
vn 0.0039 0.6929 -0.7210
vn -0.0064 -0.3712 0.9285
vn 0.0000 0.0029 1.0000
vn -0.0033 0.0044 1.0000
usemtl None
s off
f 1//1 2//1 3//1
f 4//2 3//2 2//2
f 5//3 1//3 3//3
f 6//4 7//4 8//4
f 9//5 10//5 7//5
f 1//5 11//5 2//5
f 12//6 2//6 11//6
f 13//2 2//2 12//2
f 14//2 4//2 2//2
f 13//2 14//2 2//2
f 15//7 16//7 17//7
f 6//7 16//7 15//7
f 12//8 11//8 18//8
f 19//5 20//5 11//5
f 21//9 11//9 20//9
f 1//5 19//5 11//5
f 18//10 11//10 22//10
f 23//9 22//9 11//9
f 24//7 25//7 26//7
f 21//9 23//9 11//9
f 27//5 28//5 20//5
f 29//11 20//11 28//11
f 24//12 30//12 31//12
f 32//5 27//5 20//5
f 33//7 34//7 8//7
f 35//5 32//5 20//5
f 36//13 9//13 33//13
f 19//5 35//5 20//5
f 26//14 37//14 38//14
f 29//11 21//11 20//11
f 39//15 28//15 27//15
f 29//16 28//16 39//16
f 25//17 40//17 37//17
f 39//18 27//18 32//18
f 8//19 10//19 41//19
f 42//20 43//20 44//20
f 39//21 32//21 45//21
f 46//22 32//22 35//22
f 45//23 32//23 46//23
f 9//5 40//5 10//5
f 9//24 7//24 47//24
f 46//25 35//25 19//25
f 26//26 38//26 15//26
f 48//27 49//27 50//27
f 46//28 19//28 51//28
f 19//29 1//29 52//29
f 51//30 19//30 52//30
f 36//31 31//31 9//31
f 16//32 53//32 17//32
f 52//33 1//33 54//33
f 55//33 1//33 56//33
f 56//33 1//33 57//33
f 33//7 8//7 41//7
f 57//33 1//33 5//33
f 54//33 1//33 58//33
f 58//33 1//33 59//33
f 59//33 1//33 60//33
f 6//34 15//34 61//34
f 8//35 7//35 10//35
f 60//33 1//33 62//33
f 62//33 1//33 55//33
f 63//33 64//33 65//33
f 18//7 52//7 66//7
f 63//33 66//33 52//33
f 12//7 18//7 66//7
f 67//7 12//7 66//7
f 65//36 67//36 66//36
f 63//33 65//33 66//33
f 22//7 51//7 52//7
f 18//7 22//7 52//7
f 24//7 41//7 25//7
f 68//33 63//33 52//33
f 54//33 68//33 52//33
f 24//37 31//37 36//37
f 22//7 46//7 51//7
f 41//38 10//38 40//38
f 69//7 45//7 46//7
f 22//7 69//7 46//7
f 9//5 31//5 30//5
f 69//7 39//7 45//7
f 6//7 8//7 34//7
f 34//16 39//16 69//16
f 34//16 29//16 39//16
f 23//11 69//11 22//11
f 34//11 69//11 23//11
f 70//2 12//2 67//2
f 71//2 12//2 72//2
f 36//7 33//7 24//7
f 73//2 12//2 71//2
f 74//2 13//2 12//2
f 75//2 74//2 12//2
f 76//2 75//2 12//2
f 77//2 76//2 12//2
f 42//7 16//7 34//7
f 42//39 44//39 16//39
f 73//2 77//2 12//2
f 70//2 72//2 12//2
f 65//36 70//36 67//36
f 56//40 78//40 79//40
f 80//2 79//2 78//2
f 55//40 56//40 79//40
f 42//34 81//34 43//34
f 33//7 41//7 24//7
f 57//41 78//41 56//41
f 4//2 80//2 78//2
f 82//2 4//2 78//2
f 57//41 82//41 78//41
f 15//42 38//42 61//42
f 72//40 83//40 84//40
f 85//33 84//33 83//33
f 71//40 72//40 84//40
f 86//41 71//41 84//41
f 85//33 86//33 84//33
f 41//43 40//43 25//43
f 64//44 83//44 72//44
f 63//33 83//33 64//33
f 63//33 85//33 83//33
f 86//41 73//41 71//41
f 87//2 80//2 88//2
f 60//45 88//45 80//45
f 62//36 87//36 88//36
f 62//46 88//46 60//46
f 60//47 80//47 4//47
f 87//2 79//2 80//2
f 89//48 47//48 49//48
f 60//49 4//49 14//49
f 82//2 3//2 4//2
f 6//7 34//7 16//7
f 59//50 14//50 13//50
f 60//51 14//51 59//51
f 58//40 13//40 74//40
f 59//50 13//50 58//50
f 54//52 74//52 75//52
f 58//40 74//40 54//40
f 68//53 75//53 76//53
f 54//52 75//52 68//52
f 63//54 76//54 77//54
f 68//55 76//55 63//55
f 17//43 47//43 89//43
f 63//56 77//56 85//56
f 7//5 61//5 47//5
f 9//5 47//5 53//5
f 90//57 77//57 73//57
f 85//56 77//56 90//56
f 90//55 73//55 86//55
f 64//58 72//58 70//58
f 64//59 70//59 65//59
f 5//60 3//60 82//60
f 5//60 82//60 57//60
f 55//61 79//61 87//61
f 55//61 87//61 62//61
f 30//62 23//62 21//62
f 81//7 34//7 23//7
f 24//63 23//63 30//63
f 48//7 81//7 23//7
f 48//26 50//26 81//26
f 89//7 48//7 23//7
f 17//7 89//7 23//7
f 15//7 17//7 23//7
f 17//38 53//38 47//38
f 26//7 15//7 23//7
f 9//5 53//5 44//5
f 24//7 26//7 23//7
f 49//5 21//5 29//5
f 85//33 90//33 86//33
f 61//5 21//5 47//5
f 49//5 47//5 21//5
f 6//20 61//20 7//20
f 38//5 21//5 61//5
f 37//5 40//5 21//5
f 9//5 21//5 40//5
f 89//64 49//64 48//64
f 38//5 37//5 21//5
f 25//64 37//64 26//64
f 9//5 30//5 21//5
f 33//65 29//65 34//65
f 16//35 44//35 53//35
f 50//5 29//5 43//5
f 44//5 43//5 29//5
f 9//5 44//5 29//5
f 50//5 49//5 29//5
f 33//66 9//66 29//66
f 81//42 50//42 43//42
f 42//7 34//7 81//7
