# Blender v2.79 (sub 0) OBJ File: ''
# www.blender.org
mtllib shoulder.mtl
o vanguard_shoulder.mesh
v -0.049881 -0.025036 0.261588
v -0.049881 0.024480 0.260757
v -0.049881 0.019602 0.254897
v -0.039966 0.019602 0.254897
v -0.049881 -0.019763 0.254897
v -0.049881 0.019602 0.014992
v -0.039966 0.019602 0.014992
v -0.039966 0.019602 0.207859
v -0.039966 0.019602 0.162602
v 0.039358 0.025391 0.273042
v 0.049273 0.025391 0.273039
v 0.049273 0.026162 0.268230
v 0.039358 -0.026323 0.001658
v 0.039358 0.026162 0.001658
v 0.039358 0.025391 -0.003153
v 0.039358 0.023179 0.258888
v 0.039358 -0.025036 0.261588
v 0.039358 0.025410 0.263420
v -0.039966 0.024875 0.261589
v -0.049881 -0.026323 0.268230
v -0.049881 0.026162 0.268230
v 0.039358 0.019602 0.254897
v 0.039358 -0.019763 0.254897
v -0.049881 -0.025552 0.273039
v -0.049881 0.025391 0.273039
v -0.039966 0.026162 0.268232
v -0.049881 -0.021590 0.279953
v -0.049881 0.022066 0.279225
v -0.039966 0.025391 0.273042
v -0.039966 -0.023340 0.258888
v -0.039966 -0.025571 0.263420
v -0.039966 -0.026323 0.268232
v 0.039358 -0.026323 0.268232
v 0.039358 0.026162 0.268232
v -0.039966 0.021430 0.279953
v -0.049881 -0.011964 0.286286
v -0.049881 0.012803 0.285875
v 0.039358 0.022067 0.279226
v 0.039358 -0.011970 0.286284
v 0.039358 0.012808 0.285873
v -0.039966 0.026162 0.001658
v -0.039966 -0.025552 -0.003153
v -0.039966 0.025391 -0.003153
v -0.039966 -0.019763 0.254897
v 0.039358 0.019602 0.162602
v -0.039966 -0.019763 0.162602
v -0.039966 0.011809 0.286284
v 0.039358 -0.022229 -0.009335
v 0.039358 0.011811 -0.016394
v 0.039358 -0.012971 -0.015983
v -0.049881 0.000486 0.288445
v 0.039358 -0.019763 0.207859
v 0.039358 0.019602 0.207859
v 0.039358 -0.000646 -0.018555
v -0.039966 -0.000647 0.288444
v 0.039358 -0.025571 0.006469
v -0.039966 -0.012969 0.285873
v -0.039966 0.022068 -0.009335
v -0.039966 -0.011972 -0.016394
v -0.039966 0.012810 -0.015983
v 0.039358 -0.025552 0.273042
v 0.039358 -0.021590 0.279954
v -0.039966 -0.022228 0.279226
v 0.039358 0.019602 0.014992
v 0.039358 -0.019763 0.014992
v 0.039358 -0.019763 0.162602
v -0.039966 -0.025552 0.273042
v -0.049881 -0.019763 0.014992
v -0.049881 0.024874 0.008305
v -0.049881 -0.023340 0.011003
v -0.039966 -0.019763 0.014992
v -0.039966 -0.019763 0.207859
v -0.049881 -0.025571 0.006469
v -0.039966 -0.025035 0.008304
v -0.049881 0.026162 0.001660
v -0.049881 -0.026323 0.001660
v 0.049273 0.024875 0.261588
v -0.049881 0.025391 -0.003149
v -0.049881 -0.025552 -0.003149
v -0.039966 -0.026323 0.001658
v -0.049881 0.021431 -0.010061
v -0.049881 -0.022228 -0.009335
v -0.039966 -0.021591 -0.010063
v -0.049881 0.011803 -0.016397
v -0.049881 -0.012963 -0.015986
v -0.039966 0.025410 0.006469
v -0.049881 -0.000648 -0.018554
v 0.039358 -0.025552 -0.003153
v 0.039358 0.021430 -0.010063
v -0.039966 0.000485 -0.018555
v -0.039966 0.023179 0.011003
v 0.049273 -0.019763 0.014992
v 0.049273 0.019602 0.014992
v 0.049273 0.019602 0.254897
v 0.049273 -0.019763 0.254897
v 0.049273 -0.025035 0.008305
v 0.049273 0.023180 0.011003
v 0.049273 0.025410 0.006469
v 0.039358 0.024874 0.008304
v 0.049273 -0.026323 0.001660
v 0.049273 0.026162 0.001660
v 0.049273 -0.025552 -0.003149
v 0.049273 0.025391 -0.003149
v 0.049273 -0.021592 -0.010061
v 0.049273 0.022067 -0.009335
v 0.039358 0.000486 0.288444
v 0.049273 -0.011964 -0.016397
v 0.049273 0.012802 -0.015986
v 0.049273 0.000487 -0.018554
v 0.039358 -0.023340 0.011003
v 0.049273 -0.024640 0.260757
v 0.049273 0.021429 0.279953
v 0.049273 -0.026323 0.268230
v 0.049273 -0.025552 0.273039
v 0.049273 -0.022227 0.279225
v 0.049273 0.011803 0.286286
v 0.049273 -0.012964 0.285875
v 0.049273 -0.000647 0.288445
vn -1.0000 0.0000 0.0000
vn 0.0000 0.7686 -0.6398
vn 0.0000 1.0000 0.0000
vn 0.0000 0.9874 0.1583
vn 0.0206 0.7853 -0.6188
vn -0.0204 0.9754 -0.2195
vn 0.0000 0.9817 -0.1902
vn -0.0001 0.8808 0.4734
vn 1.0000 0.0000 0.0000
vn 0.0191 0.8674 0.4972
vn -0.0222 0.5830 0.8121
vn 0.0000 0.0000 -1.0000
vn 0.0206 0.5496 0.8352
vn -0.0199 0.2042 0.9787
vn 0.0000 0.0000 1.0000
vn 0.0196 0.1708 0.9851
vn -0.0194 -0.1708 0.9851
vn 0.0001 0.8808 0.4735
vn 0.0201 -0.2042 0.9787
vn -0.0209 -0.5495 0.8352
vn 0.0220 -0.5830 0.8121
vn -0.0194 -0.8675 0.4971
vn -0.0000 -0.9874 0.1583
vn -0.0001 -0.8808 0.4735
vn 0.0000 -0.9817 -0.1902
vn -0.0248 -0.9877 -0.1544
vn -0.0342 -0.7850 -0.6186
vn 0.0332 -0.8967 -0.4414
vn 0.0000 -1.0000 -0.0000
vn 0.0000 -0.7447 -0.6674
vn 0.0000 -0.7445 0.6676
vn -0.0332 -0.8968 0.4413
vn 0.0342 -0.7849 0.6187
vn 0.0248 -0.9877 0.1544
vn -0.0000 -0.9874 -0.1583
vn 0.0000 -0.9817 0.1903
vn -0.0002 -0.8809 -0.4733
vn -0.0001 -0.9874 -0.1582
vn 0.0192 -0.8674 -0.4972
vn -0.0222 -0.5830 -0.8122
vn 0.0206 -0.5497 -0.8351
vn -0.0199 -0.2041 -0.9787
vn 0.0194 -0.1709 -0.9851
vn -0.0196 0.1707 -0.9851
vn 0.0201 0.2042 -0.9787
vn -0.0209 0.5496 -0.8352
vn 0.0220 0.5831 -0.8121
vn -0.0193 0.8675 -0.4970
vn -0.0001 0.9874 -0.1583
vn -0.0002 0.8808 -0.4735
vn 0.0000 0.9817 0.1903
vn -0.0000 0.9874 -0.1582
vn -0.0248 0.9877 0.1544
vn -0.0342 0.7848 0.6188
vn 0.0332 0.8968 0.4413
vn 0.0000 0.7445 0.6676
vn 0.0342 0.7850 -0.6186
vn 0.0000 0.7447 -0.6674
vn 0.0000 0.7444 0.6677
vn 0.0332 0.8968 0.4411
vn 0.0248 0.9877 -0.1544
vn -0.0343 0.7849 0.6187
vn 0.0000 0.9874 -0.1583
vn 0.0002 0.8809 -0.4733
vn 0.0001 0.9874 -0.1582
vn -0.0192 0.8674 -0.4972
vn 0.0222 0.5830 -0.8122
vn -0.0206 0.5497 -0.8351
vn 0.0199 0.2041 -0.9787
vn -0.0194 0.1709 -0.9851
vn 0.0196 -0.1707 -0.9851
vn -0.0201 -0.2042 -0.9787
vn 0.0209 -0.5496 -0.8352
vn -0.0220 -0.5831 -0.8121
vn 0.0193 -0.8675 -0.4970
vn 0.0001 -0.9874 -0.1583
vn 0.0002 -0.8808 -0.4735
vn 0.0000 -0.9874 -0.1582
vn -0.0332 0.8967 -0.4414
vn 0.0342 -0.7848 0.6188
vn 0.0000 -0.7686 -0.6397
vn -0.0220 0.5830 0.8121
vn 0.0194 0.8675 0.4971
vn -0.0205 -0.7853 -0.6188
vn 0.0205 -0.9754 -0.2197
vn -0.0000 -0.9818 -0.1902
vn 0.0001 -0.8808 0.4734
vn -0.0192 -0.8674 0.4972
vn 0.0223 -0.5830 0.8121
vn -0.0206 -0.5496 0.8352
vn 0.0199 -0.2042 0.9787
vn -0.0196 -0.1708 0.9851
vn 0.0194 0.1708 0.9851
vn -0.0201 0.2042 0.9787
vn 0.0209 0.5495 0.8352
usemtl None
s off
f 1//1 2//1 3//1
f 4//2 3//2 2//2
f 5//1 1//1 3//1
f 6//1 5//1 3//1
f 7//3 6//3 3//3
f 8//3 3//3 4//3
f 9//3 7//3 3//3
f 8//3 9//3 3//3
f 10//4 11//4 12//4
f 13//1 14//1 15//1
f 16//1 17//1 18//1
f 19//5 4//5 2//5
f 20//1 21//1 2//1
f 19//6 2//6 21//6
f 1//1 20//1 2//1
f 22//1 23//1 17//1
f 24//1 25//1 21//1
f 26//4 21//4 25//4
f 20//1 24//1 21//1
f 26//7 19//7 21//7
f 27//1 28//1 25//1
f 29//8 25//8 28//8
f 24//1 27//1 25//1
f 29//4 26//4 25//4
f 30//9 19//9 31//9
f 32//9 26//9 29//9
f 18//1 33//1 34//1
f 35//10 29//10 28//10
f 36//1 37//1 28//1
f 35//11 28//11 37//11
f 27//1 36//1 28//1
f 38//1 39//1 40//1
f 41//9 42//9 43//9
f 44//9 4//9 19//9
f 45//12 46//12 9//12
f 47//13 35//13 37//13
f 48//1 49//1 50//1
f 47//14 37//14 51//14
f 36//1 51//1 37//1
f 8//15 52//15 53//15
f 50//1 49//1 54//1
f 55//16 47//16 51//16
f 55//17 51//17 36//17
f 14//1 13//1 56//1
f 10//18 38//18 11//18
f 57//19 55//19 36//19
f 57//20 36//20 27//20
f 58//9 59//9 60//9
f 10//1 61//1 62//1
f 63//21 57//21 27//21
f 63//22 27//22 24//22
f 64//1 65//1 66//1
f 67//23 24//23 20//23
f 67//24 63//24 24//24
f 32//25 20//25 1//25
f 32//23 67//23 20//23
f 34//1 33//1 61//1
f 31//26 32//26 1//26
f 30//27 1//27 5//27
f 31//28 1//28 30//28
f 6//1 68//1 5//1
f 44//29 5//29 68//29
f 44//30 30//30 5//30
f 69//1 70//1 68//1
f 71//31 68//31 70//31
f 6//1 69//1 68//1
f 72//29 44//29 68//29
f 46//29 68//29 71//29
f 46//29 72//29 68//29
f 69//1 73//1 70//1
f 74//32 70//32 73//32
f 34//4 10//4 12//4
f 74//33 71//33 70//33
f 75//1 76//1 73//1
f 74//34 73//34 76//34
f 69//1 75//1 73//1
f 34//7 12//7 77//7
f 78//1 79//1 76//1
f 80//35 76//35 79//35
f 75//1 78//1 76//1
f 80//36 74//36 76//36
f 81//1 82//1 79//1
f 42//37 79//37 82//37
f 78//1 81//1 79//1
f 42//38 80//38 79//38
f 31//9 26//9 32//9
f 67//9 29//9 35//9
f 10//1 62//1 38//1
f 83//39 42//39 82//39
f 84//1 85//1 82//1
f 83//40 82//40 85//40
f 81//1 84//1 82//1
f 72//9 4//9 44//9
f 86//9 80//9 41//9
f 43//9 42//9 83//9
f 45//12 66//12 46//12
f 59//41 83//41 85//41
f 63//9 47//9 57//9
f 59//42 85//42 87//42
f 84//1 87//1 85//1
f 9//9 46//9 71//9
f 88//1 89//1 48//1
f 90//43 59//43 87//43
f 90//44 87//44 84//44
f 13//1 15//1 88//1
f 45//1 64//1 66//1
f 60//45 90//45 84//45
f 60//46 84//46 81//46
f 60//9 59//9 90//9
f 38//1 62//1 39//1
f 58//47 60//47 81//47
f 58//48 81//48 78//48
f 57//9 47//9 55//9
f 43//49 78//49 75//49
f 43//50 58//50 78//50
f 41//51 75//51 69//51
f 41//52 43//52 75//52
f 18//1 17//1 33//1
f 86//53 41//53 69//53
f 91//54 69//54 6//54
f 91//55 86//55 69//55
f 7//56 91//56 6//56
f 92//9 93//9 94//9
f 22//3 94//3 93//3
f 95//9 92//9 94//9
f 77//9 95//9 94//9
f 16//57 77//57 94//57
f 22//58 16//58 94//58
f 96//9 97//9 93//9
f 64//59 93//59 97//59
f 92//9 96//9 93//9
f 53//3 22//3 93//3
f 45//3 93//3 64//3
f 53//3 93//3 45//3
f 96//9 98//9 97//9
f 99//60 97//60 98//60
f 18//61 34//61 77//61
f 99//62 64//62 97//62
f 100//9 101//9 98//9
f 99//53 98//53 101//53
f 96//9 100//9 98//9
f 67//9 35//9 63//9
f 102//9 103//9 101//9
f 14//63 101//63 103//63
f 100//9 102//9 101//9
f 14//51 99//51 101//51
f 104//9 105//9 103//9
f 15//64 103//64 105//64
f 102//9 104//9 103//9
f 15//65 14//65 103//65
f 32//9 29//9 67//9
f 40//1 39//1 106//1
f 63//9 35//9 47//9
f 89//66 15//66 105//66
f 107//9 108//9 105//9
f 89//67 105//67 108//67
f 104//9 107//9 105//9
f 8//9 4//9 72//9
f 91//9 74//9 86//9
f 41//9 80//9 42//9
f 99//1 65//1 64//1
f 49//68 89//68 108//68
f 8//3 45//3 9//3
f 49//69 108//69 109//69
f 107//9 109//9 108//9
f 9//9 71//9 7//9
f 8//3 53//3 45//3
f 54//70 49//70 109//70
f 54//71 109//71 107//71
f 48//1 89//1 49//1
f 110//1 65//1 99//1
f 50//72 54//72 107//72
f 50//73 107//73 104//73
f 7//9 71//9 74//9
f 46//29 66//29 52//29
f 48//74 50//74 104//74
f 48//75 104//75 102//75
f 53//1 23//1 22//1
f 88//76 102//76 100//76
f 88//77 48//77 102//77
f 13//36 100//36 96//36
f 13//78 88//78 100//78
f 16//79 18//79 77//79
f 56//34 13//34 96//34
f 110//80 96//80 92//80
f 110//32 56//32 96//32
f 65//29 92//29 95//29
f 110//31 92//31 65//31
f 77//9 111//9 95//9
f 23//81 95//81 111//81
f 52//29 95//29 23//29
f 66//29 95//29 52//29
f 66//29 65//29 95//29
f 38//82 40//82 112//82
f 38//83 112//83 11//83
f 22//1 17//1 16//1
f 17//84 23//84 111//84
f 12//9 113//9 111//9
f 17//85 111//85 113//85
f 77//9 12//9 111//9
f 53//1 52//1 23//1
f 11//9 114//9 113//9
f 33//23 113//23 114//23
f 12//9 11//9 113//9
f 33//86 17//86 113//86
f 112//9 115//9 114//9
f 61//87 114//87 115//87
f 11//9 112//9 114//9
f 61//23 33//23 114//23
f 44//9 19//9 30//9
f 31//9 19//9 26//9
f 34//1 61//1 10//1
f 62//88 61//88 115//88
f 116//9 117//9 115//9
f 62//89 115//89 117//89
f 112//9 116//9 115//9
f 56//1 99//1 14//1
f 43//9 83//9 58//9
f 58//9 83//9 59//9
f 7//9 74//9 91//9
f 39//90 62//90 117//90
f 88//1 15//1 89//1
f 39//91 117//91 118//91
f 116//9 118//9 117//9
f 8//15 72//15 52//15
f 46//29 52//29 72//29
f 106//92 39//92 118//92
f 106//93 118//93 116//93
f 110//1 99//1 56//1
f 86//9 74//9 80//9
f 40//94 106//94 116//94
f 40//95 116//95 112//95
