# Blender v2.79 (sub 0) OBJ File: ''
# www.blender.org
mtllib tilter.mtl
o vanguard_tilter.mesh
v -0.028783 -0.018832 -0.048613
v -0.022249 -0.030396 -0.047050
v -0.034534 -0.043944 -0.045219
v 0.019283 0.007121 -0.052120
v 0.007983 0.014405 -0.053104
v 0.031569 0.020667 -0.053951
v -0.028533 -0.002551 -0.050813
v -0.034534 0.020667 -0.053951
v -0.034534 -0.001721 -0.010569
v 0.031569 -0.012349 0.004417
v 0.031569 -0.025715 0.034016
v 0.031569 -0.043944 -0.045219
v -0.034534 -0.025715 0.034016
v -0.034534 0.038896 0.025284
v 0.014829 0.011855 -0.048674
v 0.023735 0.001799 -0.047315
v 0.025568 -0.020732 -0.048356
v -0.008000 0.015329 -0.053229
v 0.031569 0.011765 0.005031
v 0.031569 0.011857 -0.004543
v 0.031569 0.038896 0.025284
v 0.015091 -0.034030 -0.046558
v -0.034534 0.011857 0.004417
v -0.034534 0.001229 0.010443
v 0.023214 -0.024182 -0.043804
v -0.029759 -0.010146 -0.045703
v -0.017042 0.012342 -0.048739
v -0.004458 0.016755 -0.049335
v -0.034534 0.011765 -0.005157
v -0.017794 -0.033311 -0.042572
v -0.010938 -0.037686 -0.046064
v 0.001507 -0.038208 -0.041911
v -0.008202 -0.037391 -0.042019
v -0.034534 -0.012257 0.005031
v 0.014082 -0.033794 -0.042507
v -0.001182 -0.039575 -0.045809
v -0.026697 -0.023260 -0.043931
v -0.018054 0.010755 -0.052611
v 0.026794 -0.011308 -0.045543
v 0.025819 -0.004448 -0.050556
v -0.034534 -0.012349 -0.004543
v 0.031569 -0.001721 0.010443
v 0.005237 0.015935 -0.049226
v 0.031569 0.001229 -0.010569
v 0.031569 -0.012257 -0.005157
v -0.026181 0.002721 -0.047441
v 0.024787 -0.000994 -0.046938
v 0.026407 -0.007421 -0.046070
v 0.024787 -0.020461 -0.044307
v 0.026407 -0.014034 -0.045176
v 0.021639 0.004869 -0.047731
v 0.021639 -0.026324 -0.043515
v 0.017146 0.009826 -0.048401
v 0.017146 -0.031282 -0.042845
v 0.011570 0.013587 -0.048909
v 0.011570 -0.035042 -0.042337
v 0.005237 -0.037391 -0.042019
v -0.001482 -0.038186 -0.041912
v -0.027751 -0.020461 -0.044307
v -0.029371 -0.014034 -0.045176
v -0.027751 -0.000994 -0.046938
v -0.029371 -0.007421 -0.046070
v -0.024603 -0.026324 -0.043515
v -0.024603 0.004869 -0.047731
v -0.020110 -0.031282 -0.042845
v -0.020110 0.009826 -0.048401
v -0.014534 -0.035042 -0.042337
v -0.014534 0.013587 -0.048909
v -0.008202 0.015935 -0.049226
v -0.001482 0.016733 -0.049334
vn 0.0000 -0.1339 -0.9910
vn -1.0000 -0.0000 0.0000
vn 1.0000 0.0000 0.0000
vn 0.0000 -0.9745 0.2242
vn 0.0000 0.1339 0.9910
vn -0.7446 -0.6659 -0.0476
vn 0.0000 -0.1340 -0.9910
vn -0.0001 -0.1339 -0.9910
vn -0.7790 0.6231 0.0694
vn 0.9648 0.0206 0.2621
vn 0.3324 -0.9422 0.0427
vn 0.5412 0.8409 0.0090
vn 0.0846 0.9880 -0.1293
vn -0.3251 0.9359 -0.1355
vn -0.7221 0.6566 -0.2181
vn -0.0562 -0.9199 0.3880
vn -0.5256 -0.7652 0.3718
vn 0.8621 0.4990 0.0878
vn -0.9656 0.0494 0.2554
vn 0.1821 0.8819 -0.4349
vn -0.3337 0.9375 -0.0985
vn -0.9244 0.2144 -0.3155
vn 0.0000 -0.1338 -0.9910
vn 0.4136 -0.8753 0.2506
vn 0.0000 0.9745 -0.2242
vn 0.3860 0.8637 -0.3241
vn -0.3941 -0.9154 0.0821
vn 0.9509 0.1889 -0.2450
vn -0.0835 -0.9457 0.3140
vn 0.7281 -0.6797 0.0883
vn -0.9587 -0.2436 -0.1469
vn 0.7276 0.5994 -0.3337
vn -0.8474 -0.4382 0.2998
vn 0.7616 -0.5544 0.3356
vn 0.9360 -0.2877 -0.2030
vn -0.0004 -0.1339 -0.9910
vn -0.0001 -0.1340 -0.9910
vn 0.0002 -0.1339 -0.9910
vn 0.0001 -0.1339 -0.9910
vn 0.0005 -0.1340 -0.9910
vn -0.0002 -0.1339 -0.9910
usemtl None
s off
f 1//1 2//1 3//1
f 4//1 5//1 6//1
f 7//1 3//1 8//1
f 9//2 8//2 3//2
f 10//3 11//3 12//3
f 3//4 11//4 13//4
f 13//5 11//5 14//5
f 15//6 4//6 16//6
f 17//1 6//1 12//1
f 5//7 18//7 6//7
f 19//3 20//3 21//3
f 14//5 11//5 21//5
f 22//8 17//8 12//8
f 23//2 14//2 8//2
f 24//2 13//2 14//2
f 20//3 12//3 6//3
f 25//9 17//9 22//9
f 26//10 1//10 7//10
f 27//11 18//11 28//11
f 29//2 23//2 8//2
f 30//12 31//12 2//12
f 32//13 31//13 33//13
f 24//2 34//2 13//2
f 20//3 6//3 21//3
f 9//2 29//2 8//2
f 35//14 22//14 36//14
f 25//15 22//15 35//15
f 28//16 18//16 5//16
f 2//7 31//7 3//7
f 15//17 5//17 4//17
f 37//18 2//18 1//18
f 38//1 7//1 8//1
f 39//19 40//19 17//19
f 3//4 12//4 11//4
f 32//20 36//20 31//20
f 36//21 32//21 35//21
f 40//7 4//7 6//7
f 41//2 3//2 13//2
f 39//22 17//22 25//22
f 36//23 12//23 3//23
f 27//24 38//24 18//24
f 18//7 8//7 6//7
f 36//1 22//1 12//1
f 8//25 14//25 6//25
f 42//3 21//3 11//3
f 23//2 24//2 14//2
f 33//26 31//26 30//26
f 43//27 5//27 15//27
f 20//3 44//3 12//3
f 44//3 45//3 12//3
f 37//28 1//28 26//28
f 43//29 28//29 5//29
f 46//30 38//30 27//30
f 45//3 10//3 12//3
f 16//31 40//31 39//31
f 30//32 2//32 37//32
f 31//23 36//23 3//23
f 16//33 4//33 40//33
f 42//3 19//3 21//3
f 41//2 9//2 3//2
f 46//34 7//34 38//34
f 26//35 7//35 46//35
f 18//1 38//1 8//1
f 14//25 21//25 6//25
f 7//8 1//8 3//8
f 17//36 40//36 6//36
f 34//2 41//2 13//2
f 10//3 42//3 11//3
f 47//36 48//36 49//36
f 48//37 50//37 49//37
f 51//38 47//38 52//38
f 47//39 49//39 52//39
f 53//1 51//1 54//1
f 51//1 52//1 54//1
f 55//1 53//1 56//1
f 53//1 54//1 56//1
f 43//8 55//8 57//8
f 55//8 56//8 57//8
f 43//39 57//39 58//39
f 59//38 60//38 61//38
f 60//40 62//40 61//40
f 63//8 59//8 64//8
f 59//41 61//41 64//41
f 65//1 63//1 66//1
f 63//1 64//1 66//1
f 67//1 65//1 68//1
f 65//39 66//39 68//39
f 33//39 67//39 69//39
f 67//1 68//1 69//1
f 43//1 58//1 70//1
f 58//8 33//8 70//8
f 33//1 69//1 70//1
